<?xml version="1.0" encoding="utf-8"?>
<!-- Generator: Adobe Illustrator 16.0.0, SVG Export Plug-In . SVG Version: 6.00 Build 0)  -->
<!DOCTYPE svg PUBLIC "-//W3C//DTD SVG 1.1//EN" "http://www.w3.org/Graphics/SVG/1.1/DTD/svg11.dtd">
<svg version="1.1" xmlns="http://www.w3.org/2000/svg" xmlns:xlink="http://www.w3.org/1999/xlink" x="0px" y="0px" width="512px"
	 height="512px" viewBox="0 0 512 512" enable-background="new 0 0 512 512" xml:space="preserve">
<g id="レイヤー_1">
	<g>
		<g>
			<defs>
				<rect id="SVGID_1_" x="1" width="256" height="512"/>
			</defs>
			<clipPath id="SVGID_2_">
				<use xlink:href="#SVGID_1_"  overflow="visible"/>
			</clipPath>
		</g>
		<g>
			<defs>
				<rect id="SVGID_3_" x="1" width="256" height="512"/>
			</defs>
			<clipPath id="SVGID_4_">
				<use xlink:href="#SVGID_3_"  overflow="visible"/>
			</clipPath>
			
				<line clip-path="url(#SVGID_4_)" fill="none" stroke="#7FC5CC" stroke-width="20" stroke-linecap="round" stroke-miterlimit="10" x1="116" y1="404" x2="256" y2="404"/>
			
				<line clip-path="url(#SVGID_4_)" fill="none" stroke="#83CCD2" stroke-width="30" stroke-linecap="round" stroke-miterlimit="10" x1="96.271" y1="476" x2="209.75" y2="73"/>
			
				<line clip-path="url(#SVGID_4_)" fill="none" stroke="#7FC5CC" stroke-width="20" stroke-linecap="round" stroke-miterlimit="10" x1="256" y1="404" x2="256" y2="46"/>
			<g clip-path="url(#SVGID_4_)">
				<path fill="#FFFFFF" d="M103,131c0-5.523,4.478-10,10-10h306c5.523,0,10,4.477,10,10v157c0,5.522-4.477,10-10,10H113
					c-5.522,0-10-4.478-10-10V131z"/>
			</g>
			
				<line clip-path="url(#SVGID_4_)" fill="none" stroke="#7FC5CC" stroke-width="15" stroke-miterlimit="10" x1="139.5" y1="126" x2="139.5" y2="306"/>
			<g clip-path="url(#SVGID_4_)">
				<g>
					<path fill="#83CCD2" d="M116.271,109.297h311.71c11,0,20,9,20,20v172.603c0,11-9,20-20,20h-311.71c-11,0-20-9-20-20V129.297
						C96.271,118.297,105.271,109.297,116.271,109.297z M116.4,298h298.8v-1.674c7.456-2.913,12.781-10.168,12.781-18.623V149.297
						c0-8.455-5.325-15.71-12.781-18.623V129H116.4V298z"/>
				</g>
			</g>
			
				<line clip-path="url(#SVGID_4_)" fill="none" stroke="#83CCD2" stroke-width="24" stroke-linecap="round" stroke-miterlimit="10" x1="256" y1="311" x2="86" y2="311"/>
		</g>
		<g>
			<defs>
				<rect id="SVGID_5_" x="1" width="256" height="512"/>
			</defs>
			<clipPath id="SVGID_6_">
				<use xlink:href="#SVGID_5_"  overflow="visible"/>
			</clipPath>
		</g>
	</g>
	<g>
		<g>
			<defs>
				<rect id="SVGID_7_" x="255" width="256" height="512"/>
			</defs>
			<clipPath id="SVGID_8_">
				<use xlink:href="#SVGID_7_"  overflow="visible"/>
			</clipPath>
		</g>
		<g>
			<defs>
				<rect id="SVGID_9_" x="255" width="256" height="512"/>
			</defs>
			<clipPath id="SVGID_10_">
				<use xlink:href="#SVGID_9_"  overflow="visible"/>
			</clipPath>
			
				<line clip-path="url(#SVGID_10_)" fill="none" stroke="#7FC5CC" stroke-width="20" stroke-linecap="round" stroke-miterlimit="10" x1="396" y1="404" x2="256" y2="404"/>
			
				<line clip-path="url(#SVGID_10_)" fill="none" stroke="#83CCD2" stroke-width="30" stroke-linecap="round" stroke-miterlimit="10" x1="415.729" y1="476" x2="302.25" y2="73"/>
			
				<line clip-path="url(#SVGID_10_)" fill="none" stroke="#7FC5CC" stroke-width="20" stroke-linecap="round" stroke-miterlimit="10" x1="256" y1="404" x2="256" y2="46"/>
			<g clip-path="url(#SVGID_10_)">
				<path fill="#FFFFFF" d="M409,131c0-5.523-4.478-10-10-10H93c-5.523,0-10,4.477-10,10v157c0,5.522,4.477,10,10,10h306
					c5.522,0,10-4.478,10-10V131z"/>
			</g>
			
				<line clip-path="url(#SVGID_10_)" fill="none" stroke="#7FC5CC" stroke-width="15" stroke-miterlimit="10" x1="372.5" y1="126" x2="372.5" y2="306"/>
			<g clip-path="url(#SVGID_10_)">
				<g>
					<path fill="#83CCD2" d="M395.729,109.297H84.019c-11,0-20,9-20,20v172.603c0,11,9,20,20,20h311.71c11,0,20-9,20-20V129.297
						C415.729,118.297,406.729,109.297,395.729,109.297z M395.6,298H96.8v-1.674c-7.456-2.913-12.781-10.168-12.781-18.623V149.297
						c0-8.455,5.326-15.71,12.781-18.623V129h298.8V298z"/>
				</g>
			</g>
			
				<line clip-path="url(#SVGID_10_)" fill="none" stroke="#83CCD2" stroke-width="24" stroke-linecap="round" stroke-miterlimit="10" x1="256" y1="311" x2="426" y2="311"/>
		</g>
		<g>
			<defs>
				<rect id="SVGID_11_" x="255" width="256" height="512"/>
			</defs>
			<clipPath id="SVGID_12_">
				<use xlink:href="#SVGID_11_"  overflow="visible"/>
			</clipPath>
		</g>
	</g>
</g>
<g id="レイヤー_3">
	<g display="none" opacity="0.2">
		<line display="inline" fill="none" stroke="#009944" x1="308.5" y1="-100" x2="308.5" y2="612"/>
		<line display="inline" fill="none" stroke="#009944" x1="300.5" y1="-100" x2="300.5" y2="612"/>
		<line display="inline" fill="none" stroke="#009944" x1="300.5" y1="-100" x2="300.5" y2="612"/>
		<line display="inline" fill="none" stroke="#009944" x1="291.5" y1="-100" x2="291.5" y2="612"/>
		<line display="inline" fill="none" stroke="#009944" x1="291.5" y1="-100" x2="291.5" y2="612"/>
		<line display="inline" fill="none" stroke="#009944" x1="282.5" y1="-100" x2="282.5" y2="612"/>
		<line display="inline" fill="none" stroke="#009944" x1="282.5" y1="-100" x2="282.5" y2="612"/>
		<line display="inline" fill="none" stroke="#009944" x1="273.5" y1="-100" x2="273.5" y2="612"/>
		<line display="inline" fill="none" stroke="#009944" x1="273.5" y1="-100" x2="273.5" y2="612"/>
		<line display="inline" fill="none" stroke="#009944" x1="264.5" y1="-100" x2="264.5" y2="612"/>
		<line display="inline" fill="none" stroke="#009944" x1="264.5" y1="-100" x2="264.5" y2="612"/>
		<line display="inline" fill="none" stroke="#009944" x1="255.5" y1="-100" x2="255.5" y2="612"/>
		<line display="inline" fill="none" stroke="#009944" x1="255.5" y1="-100" x2="255.5" y2="612"/>
		<line display="inline" fill="none" stroke="#009944" x1="247.5" y1="-100" x2="247.5" y2="612"/>
		<line display="inline" fill="none" stroke="#009944" x1="247.5" y1="-100" x2="247.5" y2="612"/>
		<line display="inline" fill="none" stroke="#009944" x1="238.5" y1="-100" x2="238.5" y2="612"/>
		<line display="inline" fill="none" stroke="#009944" x1="238.5" y1="-100" x2="238.5" y2="612"/>
		<line display="inline" fill="none" stroke="#009944" x1="229.5" y1="-100" x2="229.5" y2="612"/>
		<line display="inline" fill="none" stroke="#009944" x1="229.5" y1="-100" x2="229.5" y2="612"/>
		<line display="inline" fill="none" stroke="#009944" x1="220.5" y1="-100" x2="220.5" y2="612"/>
		<line display="inline" fill="none" stroke="#009944" x1="220.5" y1="-100" x2="220.5" y2="612"/>
		<line display="inline" fill="none" stroke="#009944" x1="211.5" y1="-100" x2="211.5" y2="612"/>
		<line display="inline" fill="none" stroke="#009944" x1="211.5" y1="-100" x2="211.5" y2="612"/>
		<line display="inline" fill="none" stroke="#009944" x1="202.5" y1="-100" x2="202.5" y2="612"/>
	</g>
	<g id="レイヤー_5">
	</g>
	<g id="レイヤー_4">
	</g>
	<g display="none">
		<defs>
			<rect id="SVGID_13_" x="115" y="129" width="280" height="169"/>
		</defs>
		<clipPath id="SVGID_14_" display="inline">
			<use xlink:href="#SVGID_13_"  overflow="visible"/>
		</clipPath>
		<polygon display="inline" opacity="0.75" clip-path="url(#SVGID_14_)" fill="#83CCD2" points="359.818,330.229 309.5,329.455 
			239.603,359 294.733,359 		"/>
		<path display="inline" opacity="0.75" clip-path="url(#SVGID_14_)" fill="#83CCD2" d="M361.677,215h-53.161
			c0,0-86.633,8.203-86.633,27.681S308.516,272,308.516,272h53.161c0,0-88.488-9.09-88.603-28.91
			C272.959,223.194,361.677,215,361.677,215z"/>
		<path display="inline" opacity="0.75" clip-path="url(#SVGID_14_)" fill="#83CCD2" d="M151,156h53.162
			c0,0,86.633,8.203,86.633,27.681S204.162,213,204.162,213H151c0,0,88.489-9.09,88.603-28.91C239.718,164.195,151,156,151,156z"/>
		
			<polyline display="inline" clip-path="url(#SVGID_14_)" fill="none" stroke="#83CCD2" stroke-width="9" stroke-linecap="round" stroke-linejoin="round" stroke-miterlimit="10" points="
			350.356,318.257 337.066,310.473 323.774,318.257 		"/>
		
			<polyline display="inline" clip-path="url(#SVGID_14_)" fill="none" stroke="#83CCD2" stroke-width="9" stroke-linecap="round" stroke-linejoin="round" stroke-miterlimit="10" points="
			351.148,201.434 341.857,190.335 326.172,193.867 		"/>
		
			<polyline display="inline" clip-path="url(#SVGID_14_)" fill="none" stroke="#83CCD2" stroke-width="9" stroke-linecap="round" stroke-linejoin="round" stroke-miterlimit="10" points="
			162.514,140.795 171.804,129.696 187.491,133.228 		"/>
		<g display="inline" clip-path="url(#SVGID_14_)">
			<path fill="#7FC5CC" d="M361,390c0,2.762-2.238,5-5,5h-42c-2.762,0-5-2.238-5-5v-5c0-2.762,2.238-5,5-5h42c2.762,0,5,2.238,5,5
				V390z"/>
		</g>
		<g display="inline" clip-path="url(#SVGID_14_)">
			<path fill="#7FC5CC" d="M206,390c0,2.762-2.239,5-5,5h-45c-2.761,0-5-2.238-5-5v-5c0-2.762,2.239-5,5-5h45c2.761,0,5,2.238,5,5
				V390z"/>
		</g>
		<g display="inline" clip-path="url(#SVGID_14_)">
			<path fill="#7FC5CC" d="M206,347c0,2.762-2.239,5-5,5h-45c-2.761,0-5-2.238-5-5v-5c0-2.762,2.239-5,5-5h45c2.761,0,5,2.238,5,5
				V347z"/>
		</g>
		<g display="inline" clip-path="url(#SVGID_14_)">
			<path fill="#7FC5CC" d="M206,303c0,2.762-2.239,5-5,5h-45c-2.761,0-5-2.238-5-5v-5c0-2.762,2.239-5,5-5h45c2.761,0,5,2.238,5,5
				V303z"/>
		</g>
		<g display="inline" clip-path="url(#SVGID_14_)">
			<path fill="#7FC5CC" d="M223,275c0,2.762-2.239,5-5,5h-62c-2.761,0-5-2.238-5-5v-5c0-2.762,2.239-5,5-5h62c2.761,0,5,2.238,5,5
				V275z"/>
		</g>
		<g display="inline" clip-path="url(#SVGID_14_)">
			<path fill="#7FC5CC" d="M363,156c0,2.761-2.238,5-5,5h-59c-2.762,0-5-2.239-5-5v-5c0-2.761,2.238-5,5-5h59c2.762,0,5,2.239,5,5
				V156z"/>
		</g>
		<g display="inline" clip-path="url(#SVGID_14_)">
			<path fill="#7FC5CC" d="M295,362c0,2.762-2.238,5-5,5h-45c-2.761,0-5-2.238-5-5v-5c0-2.762,2.239-5,5-5h45c2.762,0,5,2.238,5,5
				V362z"/>
		</g>
		<g display="inline" clip-path="url(#SVGID_14_)">
			<path fill="#7FC5CC" d="M361,333c0,2.762-2.238,5-5,5h-42c-2.762,0-5-2.238-5-5v-5c0-2.762,2.238-5,5-5h42c2.762,0,5,2.238,5,5
				V333z"/>
		</g>
		<g display="inline" clip-path="url(#SVGID_14_)">
			<path fill="#7FC5CC" d="M361,275c0,2.762-2.238,5-5,5h-42c-2.762,0-5-2.238-5-5v-5c0-2.762,2.238-5,5-5h42c2.762,0,5,2.238,5,5
				V275z"/>
		</g>
		<g display="inline" clip-path="url(#SVGID_14_)">
			<path fill="#7FC5CC" d="M206,216c0,2.761-2.239,5-5,5h-45c-2.761,0-5-2.239-5-5v-5c0-2.761,2.239-5,5-5h45c2.761,0,5,2.239,5,5
				V216z"/>
		</g>
		<g display="inline" clip-path="url(#SVGID_14_)">
			<path fill="#7FC5CC" d="M207,156c0,2.761-2.239,5-5,5h-45c-2.761,0-5-2.239-5-5v-5c0-2.761,2.239-5,5-5h45c2.761,0,5,2.239,5,5
				V156z"/>
		</g>
	</g>
	<g>
		<path fill="#7FC5CC" d="M205.528,275.944c-1.945,1.944-5.126,1.944-7.071-0.001l-3.536-3.535c-1.944-1.945-1.944-5.127,0-7.071
			l109.727-109.726c1.944-1.945,5.126-1.945,7.071,0l3.535,3.536c1.945,1.944,1.945,5.126,0.001,7.071L205.528,275.944z"/>
	</g>
	<g>
		<path fill="#7FC5CC" d="M311.718,275.944c-1.944,1.944-5.126,1.944-7.07,0L194.921,166.217c-1.945-1.945-1.945-5.126,0-7.071
			l3.535-3.535c1.945-1.945,5.126-1.945,7.071,0l109.727,109.726c1.944,1.944,1.944,5.126,0,7.07L311.718,275.944z"/>
	</g>
</g>
</svg>
