<svg xmlns="http://www.w3.org/2000/svg" xmlns:xlink="http://www.w3.org/1999/xlink" xml:space="preserve" width="512" height="512"><defs><path id="a" d="M1 0h256v512H1z"/></defs><clipPath id="b"><use xlink:href="#a" overflow="visible"/></clipPath><path fill="none" stroke="#7FC5CC" stroke-linecap="round" stroke-miterlimit="10" stroke-width="40" d="M116 404h140" clip-path="url(#b)"/><defs><path id="c" d="M1 0h256v512H1z"/></defs><clipPath id="d"><use xlink:href="#c" overflow="visible"/></clipPath><path fill="none" stroke="#83CCD2" stroke-linecap="round" stroke-miterlimit="10" stroke-width="50" d="M96.271 476 197.333 73" clip-path="url(#d)"/><defs><path id="e" d="M1 0h256v512H1z"/></defs><clipPath id="f"><use xlink:href="#e" overflow="visible"/></clipPath><path fill="none" stroke="#7FC5CC" stroke-linecap="round" stroke-miterlimit="10" stroke-width="50" d="M254 398V46" clip-path="url(#f)"/><defs><path id="g" d="M1 0h256v512H1z"/></defs><clipPath id="h"><use xlink:href="#g" overflow="visible"/></clipPath><g clip-path="url(#h)"><path fill="#FFF" d="M103 131c0-5.522 4.478-10 10-10h306c5.521 0 10 4.478 10 10v157c0 5.522-4.479 10-10 10H113c-5.522 0-10-4.478-10-10z"/></g><defs><path id="i" d="M1 0h256v512H1z"/></defs><clipPath id="j"><use xlink:href="#i" overflow="visible"/></clipPath><g clip-path="url(#j)"><path fill="#83CCD2" d="M116.271 109.297h311.71c11 0 20 9 20 20V301.9c0 11-9 20-20 20h-311.71c-11 0-20-9-20-20V129.297c0-11 9-20 20-20m10.201 158.406c0 11 9 20 20 20h261.51c11 0 20-9 20-20V159.297c0-11-9-20-20-20h-261.51c-11 0-20 9-20 20z"/></g><defs><path id="k" d="M1 0h256v512H1z"/></defs><clipPath id="l"><use xlink:href="#k" overflow="visible"/></clipPath><path fill="none" stroke="#83CCD2" stroke-linecap="round" stroke-miterlimit="10" stroke-width="32" d="M256 306H86" clip-path="url(#l)"/><defs><path id="m" d="M255 0h256v512H255z"/></defs><clipPath id="n"><use xlink:href="#m" overflow="visible"/></clipPath><path fill="none" stroke="#7FC5CC" stroke-linecap="round" stroke-miterlimit="10" stroke-width="40" d="M396 404H256" clip-path="url(#n)"/><defs><path id="o" d="M255 0h256v512H255z"/></defs><clipPath id="p"><use xlink:href="#o" overflow="visible"/></clipPath><path fill="none" stroke="#83CCD2" stroke-linecap="round" stroke-miterlimit="10" stroke-width="50" d="M415.729 476 314.666 73" clip-path="url(#p)"/><defs><path id="q" d="M255 0h256v512H255z"/></defs><clipPath id="r"><use xlink:href="#q" overflow="visible"/></clipPath><path fill="none" stroke="#7FC5CC" stroke-linecap="round" stroke-miterlimit="10" stroke-width="50" d="M258 398V46" clip-path="url(#r)"/><defs><path id="s" d="M255 0h256v512H255z"/></defs><clipPath id="t"><use xlink:href="#s" overflow="visible"/></clipPath><g clip-path="url(#t)"><path fill="#FFF" d="M409 131c0-5.522-4.479-10-10-10H93c-5.522 0-10 4.478-10 10v157c0 5.522 4.478 10 10 10h306c5.521 0 10-4.478 10-10z"/></g><defs><path id="u" d="M255 0h256v512H255z"/></defs><clipPath id="v"><use xlink:href="#u" overflow="visible"/></clipPath><g clip-path="url(#v)"><path fill="#83CCD2" d="M395.729 109.297H84.019c-11 0-20 9-20 20V301.9c0 11 9 20 20 20h311.71c11 0 20-9 20-20V129.297c0-11-9-20-20-20m-10.201 158.406c0 11-9 20-20 20h-261.51c-11 0-20-9-20-20V159.297c0-11 9-20 20-20h261.51c11 0 20 9 20 20z"/></g><defs><path id="w" d="M255 0h256v512H255z"/></defs><clipPath id="x"><use xlink:href="#w" overflow="visible"/></clipPath><path fill="none" stroke="#83CCD2" stroke-linecap="round" stroke-miterlimit="10" stroke-width="32" d="M256 306h170" clip-path="url(#x)"/><path fill="#FFF" d="M126 136.2h260.5v153H126z"/><defs><path id="y" d="M1 0h256v512H1z"/></defs><clipPath id="z"><use xlink:href="#y" overflow="visible"/></clipPath><path fill="none" stroke="#7FC5CC" stroke-miterlimit="10" stroke-width="15" d="M150.5 136.002v153.399" clip-path="url(#z)"/><defs><path id="A" d="M255 0h256v512H255z"/></defs><clipPath id="B"><use xlink:href="#A" overflow="visible"/></clipPath><path fill="none" stroke="#7FC5CC" stroke-miterlimit="10" stroke-width="15" d="M361.5 136.002v153.399" clip-path="url(#B)"/><defs><path id="C" d="M130 129h252v160H130z"/></defs><clipPath id="D"><use xlink:href="#C" overflow="visible"/></clipPath><path fill="#83CCD2" d="m349.437 330.229-45.287-.774L241.242 359h49.618z" clip-path="url(#D)" opacity=".75"/><defs><path id="E" d="M130 129h252v160H130z"/></defs><clipPath id="F"><use xlink:href="#E" overflow="visible"/></clipPath><path fill="#83CCD2" d="M351.109 215h-47.846s-77.969 8.203-77.969 27.682S303.264 272 303.264 272h47.846s-79.64-9.09-79.741-28.91c-.106-19.896 79.74-28.09 79.74-28.09" clip-path="url(#F)" opacity=".75"/><defs><path id="G" d="M130 129h252v160H130z"/></defs><clipPath id="H"><use xlink:href="#G" overflow="visible"/></clipPath><path fill="#83CCD2" d="M161.5 156h47.846s77.97 8.203 77.97 27.682S209.346 213 209.346 213H161.5s79.64-9.09 79.742-28.91C241.347 164.195 161.5 156 161.5 156" clip-path="url(#H)" opacity=".75"/><defs><path id="I" d="M130 129h252v160H130z"/></defs><clipPath id="J"><use xlink:href="#I" overflow="visible"/></clipPath><path fill="none" stroke="#83CCD2" stroke-linecap="round" stroke-linejoin="round" stroke-miterlimit="10" stroke-width="9" d="m340.921 318.257-11.961-7.784-11.964 7.784" clip-path="url(#J)"/><defs><path id="K" d="M130 129h252v160H130z"/></defs><clipPath id="L"><use xlink:href="#K" overflow="visible"/></clipPath><path fill="none" stroke="#83CCD2" stroke-linecap="round" stroke-linejoin="round" stroke-miterlimit="10" stroke-width="9" d="m341.634 201.434-8.363-11.099-14.117 3.532" clip-path="url(#L)"/><defs><path id="M" d="M130 129h252v160H130z"/></defs><clipPath id="N"><use xlink:href="#M" overflow="visible"/></clipPath><path fill="none" stroke="#83CCD2" stroke-linecap="round" stroke-linejoin="round" stroke-miterlimit="10" stroke-width="9" d="m171.862 140.795 8.363-11.099 14.117 3.532" clip-path="url(#N)"/><defs><path id="O" d="M130 129h252v160H130z"/></defs><clipPath id="P"><use xlink:href="#O" overflow="visible"/></clipPath><g clip-path="url(#P)"><path fill="#7FC5CC" d="M351 390c0 2.763-2.238 5-5 5h-37c-2.763 0-5-2.237-5-5v-5c0-2.762 2.237-5 5-5h37a5 5 0 0 1 5 5z"/></g><defs><path id="Q" d="M130 129h252v160H130z"/></defs><clipPath id="R"><use xlink:href="#Q" overflow="visible"/></clipPath><g clip-path="url(#R)"><path fill="#7FC5CC" d="M211 390c0 2.763-2.238 5-5 5h-40c-2.763 0-5-2.237-5-5v-5c0-2.762 2.237-5 5-5h40a5 5 0 0 1 5 5z"/></g><defs><path id="S" d="M130 129h252v160H130z"/></defs><clipPath id="T"><use xlink:href="#S" overflow="visible"/></clipPath><g clip-path="url(#T)"><path fill="#7FC5CC" d="M211 347c0 2.763-2.238 5-5 5h-40c-2.763 0-5-2.237-5-5v-5c0-2.762 2.237-5 5-5h40a5 5 0 0 1 5 5z"/></g><defs><path id="U" d="M130 129h252v160H130z"/></defs><clipPath id="V"><use xlink:href="#U" overflow="visible"/></clipPath><g clip-path="url(#V)"><path fill="#7FC5CC" d="M211 303c0 2.763-2.238 5-5 5h-40c-2.763 0-5-2.237-5-5v-5c0-2.762 2.237-5 5-5h40a5 5 0 0 1 5 5z"/></g><defs><path id="W" d="M130 129h252v160H130z"/></defs><clipPath id="X"><use xlink:href="#W" overflow="visible"/></clipPath><g clip-path="url(#X)"><path fill="#7FC5CC" d="M226 275c0 2.763-2.238 5-5 5h-55c-2.763 0-5-2.237-5-5v-5c0-2.762 2.237-5 5-5h55a5 5 0 0 1 5 5z"/></g><defs><path id="Y" d="M130 129h252v160H130z"/></defs><clipPath id="Z"><use xlink:href="#Y" overflow="visible"/></clipPath><g clip-path="url(#Z)"><path fill="#7FC5CC" d="M352 156a5 5 0 0 1-5 5h-52c-2.763 0-5-2.238-5-5v-5a5 5 0 0 1 5-5h52a5 5 0 0 1 5 5z"/></g><defs><path id="aa" d="M130 129h252v160H130z"/></defs><clipPath id="ab"><use xlink:href="#aa" overflow="visible"/></clipPath><g clip-path="url(#ab)"><path fill="#7FC5CC" d="M291 362c0 2.763-2.238 5-5 5h-40c-2.763 0-5-2.237-5-5v-5c0-2.762 2.237-5 5-5h40a5 5 0 0 1 5 5z"/></g><defs><path id="ac" d="M130 129h252v160H130z"/></defs><clipPath id="ad"><use xlink:href="#ac" overflow="visible"/></clipPath><g clip-path="url(#ad)"><path fill="#7FC5CC" d="M350 333c0 2.763-2.238 5-5 5h-37c-2.763 0-5-2.237-5-5v-5c0-2.762 2.237-5 5-5h37a5 5 0 0 1 5 5z"/></g><defs><path id="ae" d="M130 129h252v160H130z"/></defs><clipPath id="af"><use xlink:href="#ae" overflow="visible"/></clipPath><g clip-path="url(#af)"><path fill="#7FC5CC" d="M351 275c0 2.763-2.238 5-5 5h-37c-2.763 0-5-2.237-5-5v-5c0-2.762 2.237-5 5-5h37a5 5 0 0 1 5 5z"/></g><defs><path id="ag" d="M130 129h252v160H130z"/></defs><clipPath id="ah"><use xlink:href="#ag" overflow="visible"/></clipPath><g clip-path="url(#ah)"><path fill="#7FC5CC" d="M211 216a5 5 0 0 1-5 5h-40c-2.763 0-5-2.238-5-5v-5a5 5 0 0 1 5-5h40a5 5 0 0 1 5 5z"/></g><defs><path id="ai" d="M130 129h252v160H130z"/></defs><clipPath id="aj"><use xlink:href="#ai" overflow="visible"/></clipPath><g clip-path="url(#aj)"><path fill="#7FC5CC" d="M212 156a5 5 0 0 1-5 5h-40c-2.763 0-5-2.238-5-5v-5a5 5 0 0 1 5-5h40a5 5 0 0 1 5 5z"/></g><defs><path id="ak" d="M126 129h256v160H126z"/></defs><clipPath id="al"><use xlink:href="#ak" overflow="visible"/></clipPath><g clip-path="url(#al)"><path fill="#7FC5CC" d="M351 216a5 5 0 0 1-5 5h-37c-2.763 0-5-2.238-5-5v-5a5 5 0 0 1 5-5h37a5 5 0 0 1 5 5z"/></g></svg>