<svg xmlns="http://www.w3.org/2000/svg" xmlns:xlink="http://www.w3.org/1999/xlink" xml:space="preserve" width="512" height="512"><defs><path id="a" d="M1 0h256v512H1z"/></defs><clipPath id="b"><use xlink:href="#a" overflow="visible"/></clipPath><g clip-path="url(#b)"><defs><path id="c" d="M429 120H103v178h326zM1 0h265v512H1z"/></defs></g><defs><path id="d" d="M1 0h256v512H1z"/></defs><clipPath id="e"><use xlink:href="#d" overflow="visible"/></clipPath><path fill="none" stroke="currentColor" stroke-linecap="round" stroke-miterlimit="10" stroke-width="20" d="M116 404h140" clip-path="url(#e)"/><g clip-path="url(#e)"><defs><path id="f" d="M429 120H103v178h326zM1 0h265v512H1z"/></defs><clipPath id="g"><use xlink:href="#f" overflow="visible"/></clipPath><path fill="none" stroke="currentColor" stroke-linecap="round" stroke-miterlimit="10" stroke-width="30" d="M96.271 476 209.75 73" clip-path="url(#g)"/><path fill="none" stroke="currentColor" stroke-linecap="round" stroke-miterlimit="10" stroke-width="20" d="M256 404V46" clip-path="url(#g)"/></g><path fill="none" stroke="currentColor" stroke-miterlimit="10" stroke-width="15" d="M139.5 126v180" clip-path="url(#e)"/><g clip-path="url(#e)"><path fill="currentColor" d="M116.271 109.297h311.71c11 0 20 9 20 20V301.9c0 11-9 20-20 20h-311.71c-11 0-20-9-20-20V129.297c0-11 9-20 20-20M116.4 298h298.8v-1.674c7.456-2.913 12.781-10.168 12.781-18.623V149.297c0-8.455-5.325-15.71-12.781-18.623V129H116.4z"/></g><path fill="none" stroke="currentColor" stroke-linecap="round" stroke-miterlimit="10" stroke-width="24" d="M256 311H86" clip-path="url(#e)"/><defs><path id="h" d="M1 0h256v512H1z"/></defs><clipPath id="i"><use xlink:href="#h" overflow="visible"/></clipPath><g clip-path="url(#i)"><defs><path id="j" d="M429 120H103v178h326zM1 0h265v512H1z"/></defs></g><defs><path id="k" d="M255 0h256v512H255z"/></defs><clipPath id="l"><use xlink:href="#k" overflow="visible"/></clipPath><g clip-path="url(#l)"><defs><path id="m" d="M83 120h326v178H83zM511 0H246v512h265z"/></defs></g><defs><path id="n" d="M255 0h256v512H255z"/></defs><clipPath id="o"><use xlink:href="#n" overflow="visible"/></clipPath><path fill="none" stroke="currentColor" stroke-linecap="round" stroke-miterlimit="10" stroke-width="20" d="M396 404H256" clip-path="url(#o)"/><g clip-path="url(#o)"><defs><path id="p" d="M83 120h326v178H83zM511 0H246v512h265z"/></defs><clipPath id="q"><use xlink:href="#p" overflow="visible"/></clipPath><path fill="none" stroke="currentColor" stroke-linecap="round" stroke-miterlimit="10" stroke-width="30" d="M415.729 476 302.25 73" clip-path="url(#q)"/><path fill="none" stroke="currentColor" stroke-linecap="round" stroke-miterlimit="10" stroke-width="20" d="M256 404V46" clip-path="url(#q)"/></g><path fill="none" stroke="currentColor" stroke-miterlimit="10" stroke-width="15" d="M372.5 126v180" clip-path="url(#o)"/><g clip-path="url(#o)"><path fill="currentColor" d="M395.729 109.297H84.019c-11 0-20 9-20 20V301.9c0 11 9 20 20 20h311.71c11 0 20-9 20-20V129.297c0-11-9-20-20-20M395.6 298H96.8v-1.674c-7.456-2.913-12.781-10.168-12.781-18.623V149.297c0-8.455 5.326-15.71 12.781-18.623V129h298.8z"/></g><path fill="none" stroke="currentColor" stroke-linecap="round" stroke-miterlimit="10" stroke-width="24" d="M256 311h170" clip-path="url(#o)"/><defs><path id="r" d="M255 0h256v512H255z"/></defs><clipPath id="s"><use xlink:href="#r" overflow="visible"/></clipPath><g clip-path="url(#s)"><defs><path id="t" d="M83 120h326v178H83zM511 0H246v512h265z"/></defs></g><defs><path id="u" d="M115 129h280v169H115z"/></defs><clipPath id="v"><use xlink:href="#u" overflow="visible"/></clipPath><path fill="currentColor" d="m359.818 330.229-50.318-.774L239.603 359h55.13zM361.677 215h-53.161s-86.633 8.203-86.633 27.681S308.516 272 308.516 272h53.161s-88.488-9.09-88.603-28.91c-.115-19.896 88.603-28.09 88.603-28.09M151 156h53.162s86.633 8.203 86.633 27.681S204.162 213 204.162 213H151s88.489-9.09 88.603-28.91C239.718 164.195 151 156 151 156" clip-path="url(#v)" opacity=".75"/><path fill="none" stroke="currentColor" stroke-linecap="round" stroke-linejoin="round" stroke-miterlimit="10" stroke-width="9" d="m350.356 318.257-13.29-7.784-13.292 7.784M351.148 201.434l-9.291-11.099-15.685 3.532M162.514 140.795l9.29-11.099 15.687 3.532" clip-path="url(#v)"/><g clip-path="url(#v)"><path fill="currentColor" d="M361 390a5 5 0 0 1-5 5h-42a5 5 0 0 1-5-5v-5a5 5 0 0 1 5-5h42a5 5 0 0 1 5 5z"/></g><g clip-path="url(#v)"><path fill="currentColor" d="M206 390a5 5 0 0 1-5 5h-45a5 5 0 0 1-5-5v-5a5 5 0 0 1 5-5h45a5 5 0 0 1 5 5z"/></g><g clip-path="url(#v)"><path fill="currentColor" d="M206 347a5 5 0 0 1-5 5h-45a5 5 0 0 1-5-5v-5a5 5 0 0 1 5-5h45a5 5 0 0 1 5 5z"/></g><g clip-path="url(#v)"><path fill="currentColor" d="M206 303a5 5 0 0 1-5 5h-45a5 5 0 0 1-5-5v-5a5 5 0 0 1 5-5h45a5 5 0 0 1 5 5z"/></g><g clip-path="url(#v)"><path fill="currentColor" d="M223 275a5 5 0 0 1-5 5h-62a5 5 0 0 1-5-5v-5a5 5 0 0 1 5-5h62a5 5 0 0 1 5 5z"/></g><g clip-path="url(#v)"><path fill="currentColor" d="M363 156a5 5 0 0 1-5 5h-59a5 5 0 0 1-5-5v-5a5 5 0 0 1 5-5h59a5 5 0 0 1 5 5z"/></g><g clip-path="url(#v)"><path fill="currentColor" d="M295 362a5 5 0 0 1-5 5h-45a5 5 0 0 1-5-5v-5a5 5 0 0 1 5-5h45a5 5 0 0 1 5 5z"/></g><g clip-path="url(#v)"><path fill="currentColor" d="M361 333a5 5 0 0 1-5 5h-42a5 5 0 0 1-5-5v-5a5 5 0 0 1 5-5h42a5 5 0 0 1 5 5z"/></g><g clip-path="url(#v)"><path fill="currentColor" d="M361 275a5 5 0 0 1-5 5h-42a5 5 0 0 1-5-5v-5a5 5 0 0 1 5-5h42a5 5 0 0 1 5 5z"/></g><g clip-path="url(#v)"><path fill="currentColor" d="M206 216a5 5 0 0 1-5 5h-45a5 5 0 0 1-5-5v-5a5 5 0 0 1 5-5h45a5 5 0 0 1 5 5z"/></g><g clip-path="url(#v)"><path fill="currentColor" d="M207 156a5 5 0 0 1-5 5h-45a5 5 0 0 1-5-5v-5a5 5 0 0 1 5-5h45a5 5 0 0 1 5 5z"/></g><g clip-path="url(#v)"><path fill="currentColor" d="M361 216a5 5 0 0 1-5 5h-42a5 5 0 0 1-5-5v-5a5 5 0 0 1 5-5h42a5 5 0 0 1 5 5z"/></g></svg>