<?xml version="1.0" encoding="UTF-8"?>
<svg id="_レイヤー_1" data-name="レイヤー_1" xmlns="http://www.w3.org/2000/svg" version="1.1" xmlns:xlink="http://www.w3.org/1999/xlink" viewBox="0 0 455 455">
  <!-- Generator: Adobe Illustrator 29.6.0, SVG Export Plug-In . SVG Version: 2.1.1 Build 207)  -->
  <defs>
    <style>
      .st0 {
        clip-path: url(#clippath-34);
      }

      .st1 {
        clip-path: url(#clippath-21);
      }

      .st2 {
        clip-path: url(#clippath-6);
      }

      .st3 {
        clip-path: url(#clippath-7);
      }

      .st4 {
        clip-path: url(#clippath-31);
      }

      .st5 {
        clip-path: url(#clippath-15);
      }

      .st6 {
        clip-path: url(#clippath-33);
      }

      .st7 {
        clip-path: url(#clippath-18);
      }

      .st8 {
        clip-path: url(#clippath-4);
      }

      .st9 {
        clip-path: url(#clippath-22);
      }

      .st10 {
        clip-path: url(#clippath-23);
      }

      .st11 {
        stroke-width: 20px;
      }

      .st11, .st12, .st13, .st14, .st15, .st16, .st17 {
        fill: none;
      }

      .st11, .st12, .st14, .st15 {
        stroke-linecap: round;
      }

      .st11, .st12, .st14, .st15, .st16 {
        stroke: #83ccd2;
      }

      .st11, .st12, .st15, .st16 {
        stroke-miterlimit: 10;
      }

      .st12 {
        stroke-width: 30px;
      }

      .st18 {
        clip-path: url(#clippath-10);
      }

      .st19 {
        clip-path: url(#clippath-25);
      }

      .st20 {
        clip-path: url(#clippath-27);
      }

      .st21 {
        clip-path: url(#clippath-11);
      }

      .st22 {
        clip-path: url(#clippath-35);
      }

      .st14 {
        stroke-linejoin: round;
        stroke-width: 9px;
      }

      .st23 {
        clip-path: url(#clippath-28);
      }

      .st24 {
        display: none;
        opacity: .2;
      }

      .st25 {
        clip-path: url(#clippath-1);
      }

      .st15 {
        stroke-width: 24px;
      }

      .st26 {
        clip-path: url(#clippath-5);
      }

      .st27 {
        clip-path: url(#clippath-20);
      }

      .st28 {
        clip-path: url(#clippath-3);
      }

      .st29 {
        clip-path: url(#clippath-26);
      }

      .st16 {
        stroke-width: 15px;
      }

      .st30 {
        clip-path: url(#clippath-12);
      }

      .st31 {
        clip-path: url(#clippath-14);
      }

      .st32 {
        clip-path: url(#clippath-30);
      }

      .st33 {
        clip-path: url(#clippath-19);
      }

      .st34 {
        clip-path: url(#clippath-32);
      }

      .st35, .st36 {
        fill: #83ccd2;
      }

      .st37 {
        clip-path: url(#clippath-16);
      }

      .st38 {
        clip-path: url(#clippath-2);
      }

      .st39 {
        clip-path: url(#clippath-29);
      }

      .st17 {
        stroke: #094;
      }

      .st40 {
        clip-path: url(#clippath-13);
      }

      .st36 {
        isolation: isolate;
        opacity: .75;
      }

      .st41 {
        clip-path: url(#clippath-24);
      }
    </style>
    <clipPath id="clippath-1">
      <rect class="st13" x="-27.28" y="-35.78" width="256" height="512"/>
    </clipPath>
    <clipPath id="clippath-2">
      <rect class="st13" x="-27.28" y="-35.78" width="256" height="512"/>
    </clipPath>
    <clipPath id="clippath-3">
      <path class="st13" d="M400.72,84.22H74.72v178h326V84.22ZM-27.28-35.78H237.72V476.22H-27.28V-35.78Z"/>
    </clipPath>
    <clipPath id="clippath-4">
      <path class="st13" d="M400.72,84.22H74.72v178h326V84.22ZM-27.28-35.78H237.72V476.22H-27.28V-35.78Z"/>
    </clipPath>
    <clipPath id="clippath-5">
      <rect class="st13" x="-27.28" y="-35.78" width="256" height="512"/>
    </clipPath>
    <clipPath id="clippath-6">
      <rect class="st13" x="-27.28" y="-35.78" width="256" height="512"/>
    </clipPath>
    <clipPath id="clippath-7">
      <rect class="st13" x="-27.28" y="-35.78" width="256" height="512"/>
    </clipPath>
    <clipPath id="clippath-10">
      <rect class="st13" x="226.72" y="-35.78" width="256" height="512"/>
    </clipPath>
    <clipPath id="clippath-11">
      <rect class="st13" x="226.72" y="-35.78" width="256" height="512"/>
    </clipPath>
    <clipPath id="clippath-12">
      <path class="st13" d="M54.72,84.22h326v178H54.72V84.22ZM482.72-35.78H217.72V476.22h265V-35.78Z"/>
    </clipPath>
    <clipPath id="clippath-13">
      <path class="st13" d="M54.72,84.22h326v178H54.72V84.22ZM482.72-35.78H217.72V476.22h265V-35.78Z"/>
    </clipPath>
    <clipPath id="clippath-14">
      <rect class="st13" x="226.72" y="-35.78" width="256" height="512"/>
    </clipPath>
    <clipPath id="clippath-15">
      <rect class="st13" x="226.72" y="-35.78" width="256" height="512"/>
    </clipPath>
    <clipPath id="clippath-16">
      <rect class="st13" x="226.72" y="-35.78" width="256" height="512"/>
    </clipPath>
    <clipPath id="clippath-18">
      <rect class="st13" x="86.72" y="93.22" width="280" height="169"/>
    </clipPath>
    <clipPath id="clippath-19">
      <rect class="st13" x="86.72" y="93.22" width="280" height="169"/>
    </clipPath>
    <clipPath id="clippath-20">
      <rect class="st13" x="86.72" y="93.22" width="280" height="169"/>
    </clipPath>
    <clipPath id="clippath-21">
      <rect class="st13" x="86.72" y="93.22" width="280" height="169"/>
    </clipPath>
    <clipPath id="clippath-22">
      <rect class="st13" x="86.72" y="93.22" width="280" height="169"/>
    </clipPath>
    <clipPath id="clippath-23">
      <rect class="st13" x="86.72" y="93.22" width="280" height="169"/>
    </clipPath>
    <clipPath id="clippath-24">
      <rect class="st13" x="86.72" y="93.22" width="280" height="169"/>
    </clipPath>
    <clipPath id="clippath-25">
      <rect class="st13" x="86.72" y="93.22" width="280" height="169"/>
    </clipPath>
    <clipPath id="clippath-26">
      <rect class="st13" x="86.72" y="93.22" width="280" height="169"/>
    </clipPath>
    <clipPath id="clippath-27">
      <rect class="st13" x="86.72" y="93.22" width="280" height="169"/>
    </clipPath>
    <clipPath id="clippath-28">
      <rect class="st13" x="86.72" y="93.22" width="280" height="169"/>
    </clipPath>
    <clipPath id="clippath-29">
      <rect class="st13" x="86.72" y="93.22" width="280" height="169"/>
    </clipPath>
    <clipPath id="clippath-30">
      <rect class="st13" x="86.72" y="93.22" width="280" height="169"/>
    </clipPath>
    <clipPath id="clippath-31">
      <rect class="st13" x="86.72" y="93.22" width="280" height="169"/>
    </clipPath>
    <clipPath id="clippath-32">
      <rect class="st13" x="86.72" y="93.22" width="280" height="169"/>
    </clipPath>
    <clipPath id="clippath-33">
      <rect class="st13" x="86.72" y="93.22" width="280" height="169"/>
    </clipPath>
    <clipPath id="clippath-34">
      <rect class="st13" x="86.72" y="93.22" width="280" height="169"/>
    </clipPath>
    <clipPath id="clippath-35">
      <rect class="st13" x="86.72" y="93.22" width="280" height="169"/>
    </clipPath>
  </defs>
  <g id="_レイヤー_11" data-name="レイヤー_1">
    <g>
      <g class="st25">
        <line class="st11" x1="87.72" y1="368.22" x2="227.72" y2="368.22"/>
      </g>
      <g class="st38">
        <g>
          <g class="st28">
            <line class="st12" x1="67.99" y1="440.22" x2="181.47" y2="37.22"/>
          </g>
          <g class="st8">
            <line class="st11" x1="227.72" y1="368.22" x2="227.72" y2="10.22"/>
          </g>
        </g>
      </g>
      <g class="st26">
        <line class="st16" x1="111.22" y1="90.22" x2="111.22" y2="270.22"/>
      </g>
      <g class="st2">
        <path class="st35" d="M87.99,73.51h311.71c11,0,20,9,20,20v172.6c0,11-9,20-20,20H87.99c-11,0-20-9-20-20V93.51c0-11,9-20,20-20ZM88.12,262.22h298.8v-1.67c7.46-2.91,12.78-10.17,12.78-18.62V113.51c0-8.46-5.33-15.71-12.78-18.62v-1.67H88.12v169Z"/>
      </g>
      <g class="st3">
        <line class="st15" x1="227.72" y1="275.22" x2="57.72" y2="275.22"/>
      </g>
    </g>
    <g>
      <g class="st18">
        <line class="st11" x1="367.72" y1="368.22" x2="227.72" y2="368.22"/>
      </g>
      <g class="st21">
        <g>
          <g class="st30">
            <line class="st12" x1="387.45" y1="440.22" x2="273.97" y2="37.22"/>
          </g>
          <g class="st40">
            <line class="st11" x1="227.72" y1="368.22" x2="227.72" y2="10.22"/>
          </g>
        </g>
      </g>
      <g class="st31">
        <line class="st16" x1="344.22" y1="90.22" x2="344.22" y2="270.22"/>
      </g>
      <g class="st5">
        <path class="st35" d="M367.45,73.51H55.74c-11,0-20,9-20,20v172.6c0,11,9,20,20,20h311.71c11,0,20-9,20-20V93.51c0-11-9-20-20-20ZM367.32,262.22H68.52v-1.67c-7.46-2.91-12.78-10.17-12.78-18.62V113.51c0-8.46,5.33-15.71,12.78-18.62v-1.67h298.8v169h0Z"/>
      </g>
      <g class="st37">
        <line class="st15" x1="227.72" y1="275.22" x2="397.72" y2="275.22"/>
      </g>
    </g>
  </g>
  <g id="_レイヤー_3" data-name="レイヤー_3">
    <g class="st24">
      <line class="st17" x1="280.22" y1="-135.78" x2="280.22" y2="576.22"/>
      <line class="st17" x1="272.22" y1="-135.78" x2="272.22" y2="576.22"/>
      <line class="st17" x1="272.22" y1="-135.78" x2="272.22" y2="576.22"/>
      <line class="st17" x1="263.22" y1="-135.78" x2="263.22" y2="576.22"/>
      <line class="st17" x1="263.22" y1="-135.78" x2="263.22" y2="576.22"/>
      <line class="st17" x1="254.22" y1="-135.78" x2="254.22" y2="576.22"/>
      <line class="st17" x1="254.22" y1="-135.78" x2="254.22" y2="576.22"/>
      <line class="st17" x1="245.22" y1="-135.78" x2="245.22" y2="576.22"/>
      <line class="st17" x1="245.22" y1="-135.78" x2="245.22" y2="576.22"/>
      <line class="st17" x1="236.22" y1="-135.78" x2="236.22" y2="576.22"/>
      <line class="st17" x1="236.22" y1="-135.78" x2="236.22" y2="576.22"/>
      <line class="st17" x1="227.22" y1="-135.78" x2="227.22" y2="576.22"/>
      <line class="st17" x1="227.22" y1="-135.78" x2="227.22" y2="576.22"/>
      <line class="st17" x1="219.22" y1="-135.78" x2="219.22" y2="576.22"/>
      <line class="st17" x1="219.22" y1="-135.78" x2="219.22" y2="576.22"/>
      <line class="st17" x1="210.22" y1="-135.78" x2="210.22" y2="576.22"/>
      <line class="st17" x1="210.22" y1="-135.78" x2="210.22" y2="576.22"/>
      <line class="st17" x1="201.22" y1="-135.78" x2="201.22" y2="576.22"/>
      <line class="st17" x1="201.22" y1="-135.78" x2="201.22" y2="576.22"/>
      <line class="st17" x1="192.22" y1="-135.78" x2="192.22" y2="576.22"/>
      <line class="st17" x1="192.22" y1="-135.78" x2="192.22" y2="576.22"/>
      <line class="st17" x1="183.22" y1="-135.78" x2="183.22" y2="576.22"/>
      <line class="st17" x1="183.22" y1="-135.78" x2="183.22" y2="576.22"/>
      <line class="st17" x1="174.22" y1="-135.78" x2="174.22" y2="576.22"/>
    </g>
    <g>
      <g class="st7">
        <polygon class="st36" points="331.54 294.45 281.22 293.67 211.32 323.22 266.45 323.22 331.54 294.45"/>
      </g>
      <g class="st33">
        <path class="st36" d="M333.39,179.22h-53.16s-86.63,8.2-86.63,27.68,86.63,29.32,86.63,29.32h53.16s-88.49-9.09-88.6-28.91c-.11-19.9,88.6-28.09,88.6-28.09Z"/>
      </g>
      <g class="st27">
        <path class="st36" d="M122.72,120.22h53.16s86.63,8.2,86.63,27.68-86.63,29.32-86.63,29.32h-53.16s88.49-9.09,88.6-28.91c.12-19.89-88.6-28.09-88.6-28.09Z"/>
      </g>
      <g class="st1">
        <polyline class="st14" points="322.07 282.47 308.78 274.69 295.49 282.47"/>
      </g>
      <g class="st9">
        <polyline class="st14" points="322.87 165.65 313.57 154.55 297.89 158.08"/>
      </g>
      <g class="st10">
        <polyline class="st14" points="134.23 105.01 143.52 93.91 159.21 97.45"/>
      </g>
      <g class="st41">
        <path class="st35" d="M332.72,354.22c0,2.76-2.24,5-5,5h-42c-2.76,0-5-2.24-5-5v-5c0-2.76,2.24-5,5-5h42c2.76,0,5,2.24,5,5v5Z"/>
      </g>
      <g class="st19">
        <path class="st35" d="M177.72,354.22c0,2.76-2.24,5-5,5h-45c-2.76,0-5-2.24-5-5v-5c0-2.76,2.24-5,5-5h45c2.76,0,5,2.24,5,5v5Z"/>
      </g>
      <g class="st29">
        <path class="st35" d="M177.72,311.22c0,2.76-2.24,5-5,5h-45c-2.76,0-5-2.24-5-5v-5c0-2.76,2.24-5,5-5h45c2.76,0,5,2.24,5,5v5Z"/>
      </g>
      <g class="st20">
        <path class="st35" d="M177.72,267.22c0,2.76-2.24,5-5,5h-45c-2.76,0-5-2.24-5-5v-5c0-2.76,2.24-5,5-5h45c2.76,0,5,2.24,5,5v5Z"/>
      </g>
      <g class="st23">
        <path class="st35" d="M194.72,239.22c0,2.76-2.24,5-5,5h-62c-2.76,0-5-2.24-5-5v-5c0-2.76,2.24-5,5-5h62c2.76,0,5,2.24,5,5v5Z"/>
      </g>
      <g class="st39">
        <path class="st35" d="M334.72,120.22c0,2.76-2.24,5-5,5h-59c-2.76,0-5-2.24-5-5v-5c0-2.76,2.24-5,5-5h59c2.76,0,5,2.24,5,5v5Z"/>
      </g>
      <g class="st32">
        <path class="st35" d="M266.72,326.22c0,2.76-2.24,5-5,5h-45c-2.76,0-5-2.24-5-5v-5c0-2.76,2.24-5,5-5h45c2.76,0,5,2.24,5,5v5Z"/>
      </g>
      <g class="st4">
        <path class="st35" d="M332.72,297.22c0,2.76-2.24,5-5,5h-42c-2.76,0-5-2.24-5-5v-5c0-2.76,2.24-5,5-5h42c2.76,0,5,2.24,5,5v5Z"/>
      </g>
      <g class="st34">
        <path class="st35" d="M332.72,239.22c0,2.76-2.24,5-5,5h-42c-2.76,0-5-2.24-5-5v-5c0-2.76,2.24-5,5-5h42c2.76,0,5,2.24,5,5v5Z"/>
      </g>
      <g class="st6">
        <path class="st35" d="M177.72,180.22c0,2.76-2.24,5-5,5h-45c-2.76,0-5-2.24-5-5v-5c0-2.76,2.24-5,5-5h45c2.76,0,5,2.24,5,5v5Z"/>
      </g>
      <g class="st0">
        <path class="st35" d="M178.72,120.22c0,2.76-2.24,5-5,5h-45c-2.76,0-5-2.24-5-5v-5c0-2.76,2.24-5,5-5h45c2.76,0,5,2.24,5,5v5Z"/>
      </g>
      <g class="st22">
        <path class="st35" d="M332.72,180.22c0,2.76-2.24,5-5,5h-42c-2.76,0-5-2.24-5-5v-5c0-2.76,2.24-5,5-5h42c2.76,0,5,2.24,5,5v5Z"/>
      </g>
    </g>
  </g>
</svg>